<svg xmlns="http://www.w3.org/2000/svg" viewBox="0 0 600 250" width="100%" height="100%">
  <g transform="translate(150, 10)">
    
    <path d="M40 0 h220 a15 15 0 0 1 15 15 v140 a15 15 0 0 1 -15 15 h-220 a15 15 0 0 1 -15 -15 v-140 a15 15 0 0 1 15 -15 z" fill="#e2e2d9" stroke="#c5c5b5" stroke-width="2"/>

    <line x1="60" y1="15" x2="240" y2="15" stroke="#c5c5b5" stroke-width="2" stroke-linecap="round"/>
    <line x1="60" y1="22" x2="240" y2="22" stroke="#c5c5b5" stroke-width="2" stroke-linecap="round"/>

    <rect x="50" y="35" width="200" height="110" rx="8" fill="#b0b0a0" stroke="#909080" stroke-width="2"/>

    <rect x="55" y="40" width="190" height="100" rx="5" fill="#1e1e1e"/>

    <path d="M55 40 Q 150 50 245 40 L 245 60 Q 150 70 55 60 Z" fill="#ffffff" opacity="0.04"/>

    <g font-family="'JetBrains Mono', 'Fira Code', 'Courier New', monospace" font-size="12" fill="#4af626">
      <text x="65" y="60">GARY_OS v1.0</text>
      <text x="65" y="78">Memory: 640K OK</text>
      <text x="65" y="96">Loading kernel...</text>
      <text x="65" y="114">root@freebsd _</text>
    </g>

    <rect x="200" y="152" width="35" height="5" rx="2" fill="#4a4a4a"/>
    <circle cx="245" cy="154.5" r="2.5" fill="#909080"/>

    <path d="M120 170 h60 l15 20 h-90 z" fill="#d5d5cd" stroke="#c5c5b5" stroke-width="2"/>
    <rect x="105" y="190" width="90" height="10" rx="3" fill="#c5c5b5"/>

    <path d="M10 205 h280 l10 25 h-300 z" fill="#e2e2d9" stroke="#c5c5b5" stroke-width="2"/>
    <rect x="5" y="210" width="290" height="15" fill="#d5d5cd"/>
    
    <rect x="15" y="212" width="15" height="10" rx="1" fill="#f4f4f0"/>
    <rect x="35" y="212" width="15" height="10" rx="1" fill="#f4f4f0"/>
    <rect x="55" y="212" width="15" height="10" rx="1" fill="#f4f4f0"/>
    <rect x="75" y="212" width="15" height="10" rx="1" fill="#f4f4f0"/>
    <rect x="95" y="212" width="110" height="10" rx="1" fill="#f4f4f0"/> <rect x="210" y="212" width="15" height="10" rx="1" fill="#f4f4f0"/>
    <rect x="230" y="212" width="35" height="10" rx="1" fill="#f4f4f0"/> <rect x="270" y="212" width="15" height="10" rx="1" fill="#f4f4f0"/>
  </g>
</svg>